<?xml version="1.0" encoding="UTF-8"?>
<!-- Generated by Pixelmator Pro 2.4.1 -->
<svg width="1280" height="640" viewBox="0 0 1280 640" xmlns="http://www.w3.org/2000/svg" xmlns:xlink="http://www.w3.org/1999/xlink">
    <g id="workflow">
        <g id="Group">
            <g id="g1">
                <path id="Path" fill="#ff7102" fill-rule="evenodd" stroke="none" d="M 584.647766 153.734314 C 557.264404 159.717255 537.934998 184.569366 536.094055 215.174255 C 534.483276 247.159943 521.827148 273.622864 499.04599 276.384155 C 476.955231 279.145538 465.909821 251.992249 464.299042 230.591827 C 463.148499 209.881714 452.563293 182.958557 425.179962 188.941467 C 399.637482 194.694275 388.362 226.679871 387.901764 248.080383 C 387.671631 269.480774 396.645996 298.244812 421.268066 296.634094 C 440.36734 295.483521 454.404205 313.202118 455.094543 340.355408 C 455.324646 366.588196 469.821716 396.732941 498.585754 396.732941 C 528.960571 396.963013 545.988892 371.19046 546.449158 334.832672 C 547.139465 303.537445 566.238831 280.756287 587.179016 278.685272 C 608.80957 276.384155 628.829346 295.253387 631.130493 330.000366 C 633.201477 364.977386 650.920105 395.812439 698.09314 395.812439 C 748.947937 395.812439 762.524597 357.153595 761.83429 320.105499 C 760.913818 283.517639 788.757385 258.205292 822.35376 253.372925 C 859.171753 248.540558 897.370422 220.697021 892.538025 165.009827 C 887.935791 110.243103 845.595154 95.976135 806.936279 104.490295 C 762.524597 114.385132 739.973572 148.441711 740.663879 183.879059 C 741.354309 218.856079 725.246399 249.691101 690.499451 253.833191 C 657.133179 257.745056 641.715637 231.742371 639.644592 201.137482 C 637.573608 170.532501 616.633362 146.830963 584.647766 153.734314 L 584.647766 153.734314 Z"/>
            </g>
            <g id="g2">
                <path id="path1" fill="#ff7102" stroke="none" d="M 242.700882 538.021851 C 237.178192 538.021851 233.266281 535.490601 230.965164 530.428101 C 210.715271 495.220978 200.360214 476.812012 199.900009 474.740997 C 199.900009 472.900055 201.050568 471.979614 203.351685 471.979614 L 215.777756 471.979614 C 220.840225 472.209747 223.83168 473.130188 224.982254 474.97113 L 249.604263 517.311768 C 252.365601 522.374207 255.587173 524.905457 259.038849 525.365723 L 268.703583 525.365723 C 272.385376 524.905457 274.226257 523.52478 274.226257 521.223633 L 274.226257 477.502319 C 274.686493 473.820557 276.297272 472.209747 279.288757 472.209747 L 294.476166 472.209747 C 297.007385 473.360291 298.388062 475.431305 298.388062 478.652863 L 298.388062 521.453735 C 298.388062 523.754883 300.228973 525.135559 303.910767 525.595825 L 313.5755 525.595825 C 317.027161 525.365723 320.248718 522.604309 323.010101 517.54187 L 347.632111 475.201172 C 348.782684 473.360291 351.774109 472.209747 356.836609 472.209747 L 369.262665 472.209747 C 371.563782 472.209747 372.714355 473.130188 372.714355 474.97113 C 372.023987 476.812012 361.668945 495.451111 341.64917 530.658264 C 339.348053 535.720764 335.436157 538.252014 329.913452 538.252014 L 242.700882 538.252014 Z"/>
                <path id="path2" fill="#ff7102" stroke="none" d="M 457.395691 533.64978 C 456.47522 536.641174 455.094543 538.021851 453.023529 538.021851 L 381.918823 538.021851 C 379.617706 538.021851 378.006927 536.411072 377.546722 532.959351 L 377.546722 475.891541 C 378.467163 472.900055 379.847839 471.51944 381.918823 471.51944 L 452.793427 471.51944 C 455.094543 471.51944 456.705322 473.130188 457.165558 476.581848 L 457.165558 533.64978 Z M 433.463989 489.007935 C 433.463989 486.706787 431.85321 485.096069 428.40152 484.635803 L 406.540833 484.635803 C 403.77951 484.635803 401.938599 486.016479 401.478394 489.007935 L 401.478394 521.223633 C 401.478394 523.52478 403.089172 525.135559 406.540833 525.595825 L 428.40152 525.595825 C 431.162842 525.595825 432.773682 524.215149 433.463989 521.223633 L 433.463989 489.007935 Z"/>
                <path id="path3" fill="#ff7102" stroke="none" d="M 524.128235 515.931091 C 524.358337 516.161194 524.58844 516.391357 524.818604 516.851501 C 525.048706 517.081665 525.048706 517.081665 525.278809 517.311768 C 535.863953 529.047485 541.386658 535.260498 541.846863 536.180908 C 541.846863 536.411072 542.077026 536.641174 542.077026 536.641174 C 542.077026 537.561646 540.69635 538.021851 538.1651 538.021851 L 524.818604 538.021851 C 519.295898 537.791748 516.074341 537.10144 514.923767 535.950867 L 497.435211 517.311768 L 497.205109 517.081665 L 493.523315 513.399841 C 491.452301 511.328857 489.381287 510.868591 488.00061 511.55896 C 486.850067 512.47937 485.929596 513.860107 485.699493 516.161194 L 485.699493 532.499207 C 485.239258 536.180908 483.628479 538.021851 480.636993 538.021851 L 466.830261 538.021851 C 463.378571 537.331482 461.767792 535.950867 461.767792 533.64978 L 461.767792 476.351746 C 461.767792 474.97113 462.228027 474.050598 463.378571 473.130188 C 464.068909 472.209747 465.219482 471.749512 466.370056 471.749512 L 537.704834 471.749512 C 540.69635 471.979614 542.077026 473.590454 542.077026 476.812012 L 542.077026 505.57605 C 542.077026 509.487976 538.855408 511.328857 532.412292 511.328857 L 526.199219 511.328857 C 522.05719 511.328857 521.366882 512.709534 523.898132 515.470825 L 524.128235 515.931091 L 524.128235 515.931091 Z M 524.128235 484.635803 L 491.452301 484.635803 C 487.770508 484.635803 485.929596 486.93692 485.929596 491.769287 L 485.929596 492.689728 C 485.929596 494.53067 486.389801 495.911285 487.080139 496.831787 C 488.00061 497.522095 489.151184 497.982361 490.992065 498.442535 L 523.898132 498.442535 C 526.659485 498.442535 528.500366 497.061829 528.960571 494.070435 L 528.960571 489.007935 C 529.190735 486.476746 527.349792 485.096069 524.128235 484.635803 Z"/>
                <path id="path4" fill="#ff7102" stroke="none" d="M 606.968689 489.238037 L 607.428894 488.547729 L 621.235657 473.820557 C 622.386169 472.669983 625.607727 471.979614 631.130493 471.749512 L 644.47699 471.749512 C 647.00824 471.749512 648.388855 472.209747 648.388855 473.130188 C 648.388855 473.360291 648.388855 473.360291 648.158813 473.590454 C 647.698547 474.510864 641.485474 481.644348 629.519714 494.760742 L 628.599243 495.681213 L 627.678772 496.831787 C 626.528198 498.212402 625.147522 499.593079 623.766907 500.973785 L 623.766907 500.973785 L 623.536743 501.203918 C 621.465759 503.505035 621.465759 505.57605 623.076538 507.647034 L 623.996948 508.567444 C 624.687317 509.487976 625.607727 510.178284 626.298096 511.098694 C 626.528198 511.098694 626.528198 511.328857 626.528198 511.328857 L 626.758301 511.55896 L 626.988464 511.789093 C 640.565063 526.746399 647.698547 534.800293 648.158813 535.720764 C 648.158813 535.950867 648.388855 536.180908 648.388855 536.180908 L 648.388855 536.180908 C 648.388855 537.10144 647.00824 537.561646 644.47699 537.561646 L 631.130493 537.561646 C 625.607727 537.331482 622.386169 536.641174 621.235657 535.490601 L 607.428894 520.763428 L 604.667542 517.771973 C 604.437439 517.54187 604.207336 517.081665 603.977234 516.851501 C 600.065308 512.939636 596.153381 510.868591 592.011353 510.868591 L 574.75293 510.868591 C 572.451843 510.868591 571.071167 512.47937 570.610901 515.700928 L 570.610901 532.03894 C 570.150696 535.720764 568.309814 537.561646 565.088257 537.561646 L 551.741699 537.561646 C 548.290039 537.10144 546.67926 535.490601 546.67926 532.499207 L 546.67926 475.891541 C 547.59967 472.900055 548.980408 471.51944 551.051392 471.51944 L 566.008667 471.51944 C 568.309814 471.51944 569.920593 473.130188 570.380798 476.581848 L 570.380798 493.610168 C 571.071167 496.601685 572.681946 497.982361 574.75293 497.982361 L 591.551147 497.982361 C 596.153381 497.982361 600.525513 495.681213 604.437439 491.078979 L 606.968689 489.238037 Z"/>
                <path id="path5" fill="#ff7102" stroke="none" d="M 658.513855 471.749512 L 727.317444 471.749512 C 731.689514 472.43988 733.990662 474.280762 733.990662 477.502319 L 733.990662 478.882996 C 733.990662 482.794922 731.459412 484.635803 726.396973 484.635803 L 682.905701 484.635803 C 679.223938 484.635803 677.382996 486.93692 677.382996 491.769287 L 677.382996 492.689728 C 677.382996 496.601685 678.993835 498.442535 682.215393 498.442535 L 725.016296 498.442535 C 730.769104 498.902771 733.530396 500.743652 733.530396 503.505035 L 733.530396 505.806152 C 733.530396 509.718018 730.308838 511.55896 723.865723 511.55896 L 681.985291 511.55896 C 678.763733 511.55896 677.152893 513.399841 677.152893 517.311768 L 677.152893 532.729248 C 676.692688 536.411072 674.851746 538.252014 672.090454 538.252014 L 658.283752 538.252014 C 654.832031 537.561646 653.221252 536.180908 653.221252 533.879822 L 653.221252 476.581848 C 653.451355 473.820557 655.062195 472.43988 658.513855 471.749512 Z"/>
                <path id="path6" fill="#ff7102" stroke="none" d="M 738.592896 476.351746 C 738.592896 473.820557 740.203735 472.43988 743.655396 471.749512 L 757.462158 471.749512 C 760.913818 472.209747 762.524597 473.820557 762.524597 476.581848 L 762.524597 520.533325 C 762.7547 523.064575 764.135376 524.675293 766.436523 525.135559 L 812.458984 525.135559 C 816.831116 525.825867 818.9021 527.666809 818.9021 530.428101 L 818.9021 532.729248 C 818.211792 536.180908 815.450439 537.791748 810.848145 537.791748 L 743.655396 537.791748 C 740.203735 537.331482 738.592896 535.720764 738.592896 532.729248 L 738.592896 476.351746 Z"/>
                <path id="path7" fill="#ff7102" stroke="none" d="M 903.353333 533.64978 C 902.432922 536.641174 901.052246 538.021851 898.981201 538.021851 L 828.106567 538.021851 C 825.805481 538.021851 824.194702 536.411072 823.734497 532.959351 L 823.734497 475.891541 C 824.654907 472.900055 826.035583 471.51944 828.106567 471.51944 L 898.981201 471.51944 C 901.282349 471.51944 902.893066 473.130188 903.353333 476.581848 L 903.353333 533.64978 Z M 879.421692 489.007935 C 879.421692 486.706787 877.810852 485.096069 874.359192 484.635803 L 852.498535 484.635803 C 849.737122 484.635803 847.89624 486.016479 847.436035 489.007935 L 847.436035 521.223633 C 847.436035 523.52478 849.046814 525.135559 852.498535 525.595825 L 874.359192 525.595825 C 877.120544 525.595825 878.731323 524.215149 879.421692 521.223633 L 879.421692 489.007935 Z"/>
                <path id="path8" fill="#ff7102" stroke="none" d="M 950.75647 538.021851 C 945.233765 538.021851 941.321899 535.490601 939.020752 530.428101 C 919.000977 495.220978 908.645874 476.812012 907.955566 474.740997 C 907.955566 472.900055 909.10614 471.979614 911.407288 471.979614 L 923.833313 471.979614 C 928.895813 472.209747 931.887268 473.130188 933.037842 474.97113 L 957.659851 517.311768 C 960.421143 522.374207 963.6427 524.905457 967.094421 525.365723 L 976.759155 525.365723 C 980.440979 524.905457 982.28186 523.52478 982.28186 521.223633 L 982.28186 477.502319 C 982.742065 473.820557 984.352844 472.209747 987.34436 472.209747 L 1002.761841 472.209747 C 1005.293091 473.360291 1006.673767 475.431305 1006.673767 478.652863 L 1006.673767 521.453735 C 1006.673767 523.754883 1008.514648 525.135559 1012.196411 525.595825 L 1021.861206 525.595825 C 1025.312866 525.365723 1028.534424 522.604309 1031.295776 517.54187 L 1055.917725 475.201172 C 1057.068359 473.360291 1060.059814 472.209747 1065.122314 472.209747 L 1077.54834 472.209747 C 1079.849487 472.209747 1081 473.130188 1081 474.97113 C 1080.309692 476.812012 1069.95459 495.451111 1049.934814 530.658264 C 1047.633667 535.720764 1043.721802 538.252014 1038.199219 538.252014 L 950.75647 538.252014 Z"/>
            </g>
        </g>
    </g>
</svg>
